<svg id="Camada_1" data-name="Camada 1" xmlns="http://www.w3.org/2000/svg" viewBox="0 0 295.79 415.22">
  <defs>
    <style>
      .cls-1 {
        fill: #383838;
      }

      .cls-2 {
        fill: #a6271e;
      }

      .cls-3 {
        fill: #ecc69b;
      }
    </style>
  </defs>
  <path class="cls-1" d="M101.76,284.15c-.02.33-.19,2.08-1.84,4.21l-.6.77h-30.67l1.46-14.6,2.57,1.23c.12.06,12.66,5.98,27.12,6.28l2.06.04-.11,2.06ZM69.9,254.21l.9.44c.5.24,12.44,5.97,34.07,6.25h1.15s.59-.97.59-.97c.15-.25,15.41-25.74,27.91-41.94l.99-1.29-1.06-1.24c-.1-.11-3.73-4.38-8.71-11.3,2.66,3.41,5.43,6.71,8.3,9.83l1.63,1.77,11.63-15.56-1.15-1.22c-.31-.33-31.33-33.65-37.11-61.04l-.7-3.34-2.57,2.25c-.17.15-4.03,3.54-7.22,8.09-5.24,2.15-42.53,17.69-53.84,29.78-12.41,13.26-29.23,71.74-32.47,83.33-3.95,14.12-6.22,25.52-6.24,25.63l-.98,4.55,55.99.09.57-3.97c.04-.3,4.01-29.16,1.31-67.23l7,37.1ZM163.38,281.42c-3.04,3.42-7.41,3.52-7.59,3.52l-2.8.04-.29.65-1.01.2c-.13.03-1.3.24-2.96.24h0c-1.37,0-2.67-.15-3.88-.44l-1.61-.39.09-1.66s0-.09,0-.23c0,.1-.02.21-.03.31l-.21,1.77h-14.12l3.38-3.41c.07-.07.79-.79,1.92-1.69-3.11,2.25-6.68,5.12-9.32,8.12l-.6.68h-22.68l2.79-3.29c.5-.59,12.52-14.65,28.64-22.58l1.05-.52.97.66c.14.09,2.15,1.5,4,3.98-.58-.85-1.24-1.66-1.99-2.4l-1.87-1.85,2.28-1.31c.15-.09,3.76-2.12,11.32-3.3l1.19-.19.72.96c.1.14.89,1.2,1.79,2.99-.09-.22-.18-.44-.27-.66l-1.08-2.56,2.79-.21s.13,0,.37,0c4.84,0,10.8,3.18,11.71,12.14.44,4.42-.46,7.93-2.69,10.43ZM292.03,288.18l-56.08.03-.24-3.87c-.04-.3-4.01-29.16-1.3-67.23l-7.03,37.24-1.07.39c-20.35,7.43-42.07,8.54-53.21,8.54-2.12,0-3.89-.04-5.25-.08l1.41.99c.79.55,19.37,13.61,24.58,21.9l1.92,3.06h-21.75l-8.92-7.23,1.64-1.57c.15-.15,4.05-4.31-.42-13.67l-1.75-3.66-.67-.05-.54-.72c-.12-.16-3.3-4.15-10.29-4.51-.93-.05-1.85-.07-2.74-.07-8.56,0-12.46,2.2-12.49,2.23l-2.72-2.77s.36-.59,1.02-1.62c-2.64,3.89-4.36,6.43-4.42,6.51l-.63.94-20.59-1.08,1.56-2.8c9.97-17.93,41.54-61.27,55.02-79.78,11.12-15.26,20.03-34.41,20.85-36.73.47-1.35.37-3.33.29-3.98l-.62-5.17,3.92,3.43c.17.15,4.03,3.54,7.22,8.09,5.24,2.15,42.53,17.69,53.84,29.78,12.42,13.26,29.23,71.74,32.47,83.33,3.95,14.12,6.22,25.52,6.24,25.63l.74,4.51ZM224.89,275.77c-.12.06-12.66,5.98-27.12,6.28l-2.06.04.11,2.06c.02.33.19,2.08,1.84,4.21l.6.77h30.67l-1.46-14.6-2.57,1.23Z"/>
  <path class="cls-3" d="M96.81,76.48l-3.97-10.89,7.88-1.65-3.91,12.54ZM201.95,76.48l3.97-10.89-7.88-1.65,3.91,12.54ZM120.46,61.58c3.79,0,11.22.72,13.32,1.67,2.28,1.04,4.05,2.57,5.17,3.63,1.63,1.54,2.84,2.7,2.84,2.7l.6.57.83-.02c.8-.02,4.9-.04,5.78-.05.91,0,5.01.03,5.81.05l.83.02.6-.57s1.21-1.17,2.84-2.7c1.13-1.06,2.89-2.59,5.18-3.63,2.1-.95,9.53-1.67,13.32-1.67,16.46,0,22,.21,24.73.95l2.52.68v-8.23c0-20.09-15.01-51.97-55.29-51.97h-1.04c-40.28,0-55.29,31.88-55.29,51.97v8.23l2.52-.68c2.73-.73,8.27-.95,24.73-.95ZM187.17,63.85c9.38,0,11.88,5.49,11.88,8.73,0,15.47-4.73,22.68-14.88,22.68h-7.89c-4.97,0-8.89-1.41-11.65-4.2-4.9-4.94-4.84-12.71-4.8-17.35v-.98c0-3.27,1.94-8.77,14.92-8.77,2.88,0,5.46-.03,7.72-.06,1.77-.02,3.34-.04,4.7-.04ZM138.22,72.73v.98c.04,4.64.1,12.42-4.8,17.35-2.76,2.78-6.68,4.2-11.65,4.2h-7.89c-10.15,0-14.88-7.21-14.88-22.68,0-3.24,2.5-8.73,11.89-8.73,1.36,0,2.93.02,4.7.04,2.26.03,4.84.06,7.72.06,12.98,0,14.92,5.49,14.92,8.77ZM221.09,75.51c0,10.35-4.81,21.29-10.72,24.4-2.2,1.16-4.5,1.5-6.05,1.59-3,12.84-8.65,23.76-16.8,32.47-1.7,1.82-3.52,3.52-5.42,5.09l2.69-2.1-.95,5.18c-.13.74-3.66,18.45-33.15,52.66l-1.71,1.98-1.68-2c-29.48-34.2-33-51.91-33.13-52.65l-.95-5.18,4.15,3.25c9.74,7.62,20.39,11.49,31.65,11.53,10.65-.03,20.75-3.51,30.06-10.34-8.45,6.06-18.31,9.7-28,10.16v.05h-4.09s0-.05,0-.05c-13.15-.63-26.64-7.1-36.45-17.58-8.16-8.71-13.8-19.63-16.8-32.47-1.55-.08-3.85-.43-6.05-1.59-5.91-3.11-10.72-14.06-10.72-24.4,0-11.9,6.9-12.51,8.28-12.51,2.78,0,6.02,1.64,6.77,6.25.08.47.15.94.22,1.42.54,3.65.99,5.91,2.81,6.41l1.35.37.11,1.4s.35,4.06,2.07,8.66c1.91,5.1,5.65,10.31,18.92,10.31,5.66,0,9.73-.48,12.44-1.46,7.86-2.85,9.25-9.97,11-18.98l.11-.59.42-.45c.57-.59,1.94-1.28,5.18-1.54v-.09h2s2.74,0,2.74,0v.1c3.24.25,4.61.95,5.18,1.54l.42.43.11.59c1.76,9.04,3.15,16.16,11.01,19.01,2.71.98,6.78,1.46,12.44,1.46,13.27,0,17.01-5.21,18.92-10.31,1.72-4.6,2.07-8.63,2.07-8.67l.11-1.39,1.35-.37c1.82-.5,2.28-2.75,2.81-6.41.07-.48.14-.95.21-1.42.75-4.61,3.99-6.25,6.77-6.25,1.38,0,8.28.6,8.28,12.51Z"/>
  <path d="M72.62,295.9l.06,1.63c-1.54,1.58-2.68,3.03-3.47,5.67-.76,2.56-7.06,49.46-7.06,49.46h-18.54c-.49,0-20.2-34.52-20.28-33.95l-2.98,20.03c-.81,6.42-.47,9.15,1.73,11.99l-.05,1.93H.59c-.57,0-.81-.65-.33-1.14,2.85-2.85,4.72-6.34,5.53-12.77l3.58-28.95c.73-6.42-.24-9.92-2.44-12.77-.33-.49.08-1.14.65-1.14h21.57l19.65,31.47c.41.41,1.22.16,1.3-.49l2.31-17.08c.32-2.79.52-6.12.22-7.99-.31-1.92-1.06-2.78-1.97-3.85l-.03-2.06h21.99ZM140.98,295.9h-59.97v1.14c2.18,2.93,3.24,6.34,2.51,12.77l-4.18,28.95c-.81,6.42-2.76,9.84-5.61,12.77-.49.41-.16,1.14.41,1.14h59.68c.33,0,.57-.24.73-.57l2.3-14.23c.16-.49-.41-1.22-.98-.73-3.5,2.36-7.51,3.74-13.69,3.74h-24.27c-.41,0-.73-.33-.65-.65l1.14-9.89h20.8c5.99,0,7.36-.81,7.8-1.99.45-1.19,2.67-9.88,2.67-9.88l-29.87.04,1.28-10.07c0-.41.41-.73.81-.73h26.63c6.18,0,6.91,1.38,9.76,3.74.49.33,1.3-.16,1.22-.73l2.03-14.31c-.08-.24-.24-.49-.57-.49ZM215.71,312.88c-2.58,19.49-17.94,17.88-17.94,17.88,0,0,.52,1.45,5.82,9.58,7.18,11.01,10.18,10.94,10.18,10.94v1.39h-22.9l-13.07-20.89h-10.48c-.41,0-.73.33-.81.73l-.98,6.25c-.81,6.42.67,9.84,2.87,12.77l-.03,1.14h-24.95c-.57,0-.81-.73-.33-1.14,2.76-2.93,4.72-6.34,5.53-12.77l3.58-28.95c.73-6.42-.33-9.84-2.44-12.77v-1.14s43.71-.44,50.45-.44c11.9,0,17.08,5.53,15.51,17.41ZM197.19,312.72c0-5.08-2.65-5.89-7.73-5.89h-19.13l-1.68,13.83h17.24c6.97,0,11.29-2.86,11.29-7.94ZM291.16,313.07c-.55,6.33-1.33,11.85-3.08,21.77-1.75,9.92-9.13,17.82-20.08,17.82h-47.72v-1.14c2.69-2.68,4.83-5.85,5.65-11.46l3.9-31.55c.49-5.61-.46-8.78-2.5-11.47l-.12-1.14h42.42c15.43,0,22.51,5.82,21.53,17.17ZM265.31,307.15h-17.06l-4.5,33.59h16.74c6.69,0,8.98-3.13,9.78-6.87.79-3.74,1.94-12.25,2.83-18.25s-1.99-8.47-7.78-8.47Z"/>
  <path class="cls-2" d="M107.92,363.86h-41.88c-.58,0-1,.58-.75,1.01,2.25,2.52,3.42,5.54,2.58,11.3l-3.67,25.63c-.83,5.69-2.83,8.71-5.75,11.3-.42.36-.17,1.01.42,1.01h41.91c13.98,0,18.49-6.64,19.64-13.12.93-5.23,0-10.31-7.88-11.79-.17-.07-.17-.36.08-.5,7.33-1.55,10.83-5.96,11.24-12.58.39-6.25-3.92-12.25-15.95-12.25ZM96.03,404.19h-16.42l1.25-10.25h17.64c2.38,0,6.33.43,6.33,4.21s-3.28,6.05-8.8,6.05ZM98.12,384.52h-15.87l1.25-10.25h17.09c2.38,0,6.33.43,6.33,4.21s-3.28,6.05-8.8,6.05ZM154.18,363.86h25l-.03.93c-1.46,1.5-2.49,2.93-3.69,5.17-.88,1.64-1.45,4.31-1.73,6.72l-2.51,18.52c-.78,8.79-3.62,13.01-7.98,16.05-4.18,2.92-9.6,3.95-15.21,3.95-.34,0-.69.01-1.06.01-16.09,0-20.2-6.82-20.2-12.14s1.15-8.74,1.15-8.74h13.75s-.54,2.14-1.08,5.87c-.51,3.49,3.85,4.85,5.97,5.01.02,0,.04,0,.06,0,.1,0,.19,0,.28.01,3.86.05,7.26-2.34,8.48-9.47l2.56-19.54c.36-3.12.37-5.62-.52-7.51-.73-1.55-1.86-2.67-2.74-3.83-.29-.36-1-1.01-.5-1.01ZM233.87,363.86l-.03.93c-1.46,1.5-2.49,2.93-3.69,5.17-.88,1.64-1.45,4.31-1.73,6.72l-2.51,18.52c-.78,8.79-3.62,13.01-7.98,16.05-4.18,2.92-9.6,3.95-15.21,3.95-.34,0-.69.01-1.06.01-16.09,0-20.2-6.82-20.2-12.14s1.15-8.74,1.15-8.74h13.75s-.54,2.14-1.08,5.87c-.51,3.49,3.85,4.85,5.97,5.01.02,0,.04,0,.06,0,.1,0,.19,0,.28.01,3.86.05,7.26-2.34,8.48-9.47l2.56-19.54c.36-3.12.37-5.62-.52-7.51-.73-1.55-1.86-2.67-2.74-3.83-.29-.36-1-1.01-.5-1.01h25Z"/>
  <path d="M294.61,283.08c-.09-.47-2.3-11.63-6.29-25.86-4.61-16.45-20.61-71.16-33.16-84.57-11.27-12.03-46.56-27.06-54.1-30.18-3.29-4.48-7.01-7.75-7.18-7.9l-1.41-1.23c6.84-8.12,11.75-17.89,14.66-29.11,1.53-.27,3.3-.76,5.03-1.67,6.91-3.63,12.33-15.52,12.33-27.06,0-15.07-10.13-15.51-11.28-15.51-1.67,0-3.42.44-4.97,1.37v-6.4c0-21.25-15.83-54.97-58.29-54.97h-1.05c-42.46,0-58.29,33.72-58.29,54.97v6.4c-1.55-.92-3.3-1.37-4.97-1.37-1.15,0-11.28.44-11.28,15.51,0,11.54,5.41,23.43,12.31,27.05,1.73.91,3.5,1.41,5.04,1.68,2.86,11.05,7.67,20.68,14.34,28.73l-1.84,1.61c-.17.15-3.9,3.42-7.19,7.9-7.54,3.12-42.84,18.14-54.1,30.18-12.59,13.44-28.57,68.13-33.17,84.57-3.99,14.23-6.21,25.39-6.3,25.86l-1.18,5.97h62.07l.61-4.3c.06-.42.55-3.96,1.06-9.96l1.42.23-1.7,14.1h60.36s2.74-.02,3.42-.68h14.56l.46.11c1.44.35,2.98.52,4.59.52,1.89,0,3.25-.25,3.51-.29l2.54-.49,1.05-.35c.52,0,4.62-.16,8.21-3.02l8.91,4.2h59.28l-1.5-12.05-.22-2.24,1.16-.19c.51,6.08,1.01,9.67,1.07,10.09l.61,4.3h62.07l-1.18-5.97ZM95.59,54.97c0-20.31,15.11-49.97,53.29-49.97h1.05c38.18,0,53.29,29.66,53.29,49.97v5.63c-2.85-.77-7.76-1.02-25.25-1.02-3.65,0-11.57.68-14.15,1.85-2.52,1.14-4.41,2.77-5.72,4-1.64,1.54-2.86,2.72-2.86,2.72-.81-.02-4.93-.05-5.84-.05s-5.03.03-5.83.05c0,0-1.22-1.18-2.86-2.72-1.31-1.23-3.2-2.86-5.72-4-2.58-1.17-10.5-1.85-14.15-1.85-17.49,0-22.4.25-25.25,1.02v-5.63ZM197.43,72.58c0,16.54-5.57,20.68-12.88,20.68h-7.89c-15.4,0-14.45-14.51-14.45-20.53s8.26-6.77,12.92-6.77c5.13,0,9.32-.11,12.41-.11,7.77,0,9.89,4.09,9.89,6.73ZM122.15,93.26h-7.89c-7.31,0-12.88-4.14-12.88-20.68,0-2.64,2.12-6.73,9.88-6.73,3.1,0,7.29.11,12.42.11,4.66,0,12.92.75,12.92,6.77s.95,20.53-14.45,20.53ZM95.71,99.5s-3.54.32-6.72-1.36c-4.72-2.48-9.65-12.09-9.65-22.63,0-9.72,4.9-10.51,6.28-10.51s4.16.63,4.8,4.57c.64,3.93.84,8.43,4.47,9.43,0,0,.34,4.25,2.19,9.2,2.04,5.44,6.19,11.61,20.79,11.61,5.4,0,9.89-.41,13.12-1.58,8.94-3.24,10.48-11.2,12.29-20.51,0,0,.91-.93,5.75-1.02h0c.13-.01.25,0,.37,0,.13,0,.25-.01.38-.01h0c4.84.1,5.75,1.03,5.75,1.03,1.81,9.31,3.35,17.27,12.29,20.51,3.23,1.17,7.71,1.58,13.12,1.58,14.6,0,18.75-6.17,20.79-11.61,1.85-4.95,2.19-9.2,2.19-9.2,3.63-1,3.83-5.5,4.47-9.43.64-3.94,3.42-4.57,4.8-4.57s6.28.79,6.28,10.51c0,10.54-4.93,20.15-9.65,22.63-3.19,1.68-6.72,1.36-6.72,1.36-3.17,14.81-9.53,25.49-16.66,33.1-5.86,6.27-12.43,10.51-18.87,13.19-6.43,2.68-12.75,3.8-18.12,3.81h-.09c-10.74-.03-25.27-4.47-36.99-17-7.13-7.61-13.49-18.29-16.66-33.1ZM182.25,141.77s-3.22,17.53-32.7,51.72l-.17.21-.17-.21c-29.48-34.19-32.7-51.72-32.7-51.72,13.63,10.67,26.07,11.94,32.87,11.95,6.8-.01,19.24-1.28,32.87-11.95ZM59.79,287.14H7.41s3.17-14.36,7.15-28.57c7.86-28.11,21.94-71.76,32-82.5,11.75-12.56,53.69-29.52,53.69-29.52,3.14-4.64,7.23-8.21,7.23-8.21,5.96,28.28,37.6,62,37.6,62l-9.18,12.29c-18.03-19.59-32.4-46.97-37.48-60.36-.22-.57-1.09-.24-.93.35,8.76,32.6,35.83,64.14,35.83,64.14-12.72,16.48-28.05,42.14-28.05,42.14-21.42-.28-33.21-6.05-33.21-6.05l-10.64-56.37s-1.71,1.44-.46,16.57c3.34,40.38-1.17,74.09-1.17,74.09ZM98.72,287.14h-27.48l.95-9.57s12.85,6.16,27.95,6.48c0,0-.07,1.35-1.42,3.09ZM123.82,287.14h-17.46s12.06-14.24,28-22.08c0,0,4.99,3.42,6.08,9.07,0,0-10.54,6.11-16.62,13.01ZM141.68,283.44h-7.54s3.37-3.41,7.02-4.53c0,0,.82,1.92.52,4.53ZM151.67,283.87s-2.9.56-5.98-.18c0,0,.66-12.76-6.78-20.13,0,0,3.35-1.92,10.64-3.06,0,0,7.94,10.56,2.12,23.37ZM156.13,282.94s4.67-7.18-1.63-22.09c0,0,8.85-.58,9.95,10.34,1.17,11.61-8.32,11.75-8.32,11.75ZM175.09,287.14l-6.6-5.35s5.24-5.02.01-15.97c.58.4,19.05,13.41,24.02,21.32h-17.43ZM199.6,287.14c-1.35-1.74-1.42-3.09-1.42-3.09,15.1-.32,27.95-6.48,27.95-6.48l.95,9.57h-27.48ZM238.28,287.14s-4.53-33.71-1.18-74.09c1.25-15.13-.46-16.57-.46-16.57l-10.64,56.37c-28.95,10.58-60.68,8.19-60.68,8.19,0,0-3.68-4.89-11.78-5.3-11.06-.56-16.07,2.26-16.35,2.42.25-.4,5.66-9.15,14.52-21.45,31.94-44.33,43.12-62.74,48.86-84.09.15-.59-.69-.91-.93-.35-12.13,28.62-28.57,50.38-38.42,63.99-9.84,13.61-30.79,44.64-30.79,44.64l-16.26-.86c9.84-17.68,41.1-60.63,54.9-79.56,11.49-15.79,20.38-35.15,21.11-37.25.74-2.11.4-4.89.4-4.89,0,0,4.08,3.57,7.23,8.21,0,0,41.93,16.96,53.69,29.52,10.06,10.74,24.13,54.39,32,82.5,3.98,14.21,6.95,28.57,6.95,28.57h-52.17Z"/>
</svg>